<mxfile host="app.diagrams.net" modified="2023-07-22T12:35:04.782Z" agent="Mozilla/5.0 (Windows NT 10.0; Win64; x64) AppleWebKit/537.36 (KHTML, like Gecko) Chrome/115.0.0.0 Safari/537.36" etag="3u5-Zj3vDE-xP4APaEXG" version="21.6.5" type="github">
  <diagram id="C5RBs43oDa-KdzZeNtuy" name="Page-1">
    <mxGraphModel dx="989" dy="545" grid="1" gridSize="10" guides="1" tooltips="1" connect="1" arrows="1" fold="1" page="1" pageScale="1" pageWidth="827" pageHeight="1169" math="0" shadow="0">
      <root>
        <mxCell id="WIyWlLk6GJQsqaUBKTNV-0" />
        <mxCell id="WIyWlLk6GJQsqaUBKTNV-1" parent="WIyWlLk6GJQsqaUBKTNV-0" />
        <mxCell id="5SKNjN2g-NxWEHicX-SF-8" value="" style="edgeStyle=orthogonalEdgeStyle;rounded=0;orthogonalLoop=1;jettySize=auto;html=1;entryX=-0.021;entryY=0.196;entryDx=0;entryDy=0;entryPerimeter=0;" edge="1" parent="WIyWlLk6GJQsqaUBKTNV-1" source="5SKNjN2g-NxWEHicX-SF-0" target="5SKNjN2g-NxWEHicX-SF-4">
          <mxGeometry relative="1" as="geometry">
            <mxPoint x="100" y="160" as="targetPoint" />
          </mxGeometry>
        </mxCell>
        <mxCell id="5SKNjN2g-NxWEHicX-SF-0" value="Механизатор" style="shape=actor;whiteSpace=wrap;html=1;align=center;labelPosition=center;verticalLabelPosition=bottom;verticalAlign=top;" vertex="1" parent="WIyWlLk6GJQsqaUBKTNV-1">
          <mxGeometry x="30" y="130" width="40" height="60" as="geometry" />
        </mxCell>
        <mxCell id="5SKNjN2g-NxWEHicX-SF-2" value="Диспетчер" style="shape=actor;whiteSpace=wrap;html=1;labelPosition=center;verticalLabelPosition=bottom;align=center;verticalAlign=top;" vertex="1" parent="WIyWlLk6GJQsqaUBKTNV-1">
          <mxGeometry x="30" y="230" width="40" height="60" as="geometry" />
        </mxCell>
        <mxCell id="5SKNjN2g-NxWEHicX-SF-4" value="Клиентская часть" style="rounded=0;whiteSpace=wrap;html=1;labelPosition=center;verticalLabelPosition=top;align=center;verticalAlign=bottom;" vertex="1" parent="WIyWlLk6GJQsqaUBKTNV-1">
          <mxGeometry x="120" y="120" width="140" height="200" as="geometry" />
        </mxCell>
        <mxCell id="5SKNjN2g-NxWEHicX-SF-5" value="m.openagro.ru" style="rounded=1;whiteSpace=wrap;html=1;" vertex="1" parent="WIyWlLk6GJQsqaUBKTNV-1">
          <mxGeometry x="130" y="150" width="120" height="20" as="geometry" />
        </mxCell>
        <mxCell id="5SKNjN2g-NxWEHicX-SF-6" value="openagro.ru" style="rounded=1;whiteSpace=wrap;html=1;" vertex="1" parent="WIyWlLk6GJQsqaUBKTNV-1">
          <mxGeometry x="130" y="250" width="120" height="20" as="geometry" />
        </mxCell>
        <mxCell id="5SKNjN2g-NxWEHicX-SF-11" value="" style="endArrow=classic;html=1;rounded=0;entryX=0;entryY=0.75;entryDx=0;entryDy=0;" edge="1" parent="WIyWlLk6GJQsqaUBKTNV-1">
          <mxGeometry width="50" height="50" relative="1" as="geometry">
            <mxPoint x="70" y="259.83" as="sourcePoint" />
            <mxPoint x="120" y="259.83" as="targetPoint" />
          </mxGeometry>
        </mxCell>
        <mxCell id="5SKNjN2g-NxWEHicX-SF-12" value="Серверная часть" style="rounded=0;whiteSpace=wrap;html=1;labelPosition=center;verticalLabelPosition=top;align=center;verticalAlign=bottom;" vertex="1" parent="WIyWlLk6GJQsqaUBKTNV-1">
          <mxGeometry x="320" y="120" width="140" height="200" as="geometry" />
        </mxCell>
        <mxCell id="5SKNjN2g-NxWEHicX-SF-13" value="api.openagro.ru" style="rounded=1;whiteSpace=wrap;html=1;" vertex="1" parent="WIyWlLk6GJQsqaUBKTNV-1">
          <mxGeometry x="330" y="150" width="120" height="20" as="geometry" />
        </mxCell>
        <mxCell id="5SKNjN2g-NxWEHicX-SF-15" value="" style="endArrow=classic;startArrow=classic;html=1;rounded=0;entryX=-0.001;entryY=0.206;entryDx=0;entryDy=0;entryPerimeter=0;" edge="1" parent="WIyWlLk6GJQsqaUBKTNV-1" target="5SKNjN2g-NxWEHicX-SF-12">
          <mxGeometry width="50" height="50" relative="1" as="geometry">
            <mxPoint x="260" y="160" as="sourcePoint" />
            <mxPoint x="310" y="110" as="targetPoint" />
          </mxGeometry>
        </mxCell>
        <mxCell id="5SKNjN2g-NxWEHicX-SF-16" value="" style="endArrow=classic;startArrow=classic;html=1;rounded=0;exitX=0.996;exitY=0.703;exitDx=0;exitDy=0;exitPerimeter=0;entryX=-0.001;entryY=0.699;entryDx=0;entryDy=0;entryPerimeter=0;" edge="1" parent="WIyWlLk6GJQsqaUBKTNV-1" source="5SKNjN2g-NxWEHicX-SF-4" target="5SKNjN2g-NxWEHicX-SF-12">
          <mxGeometry width="50" height="50" relative="1" as="geometry">
            <mxPoint x="280" y="270" as="sourcePoint" />
            <mxPoint x="330" y="220" as="targetPoint" />
          </mxGeometry>
        </mxCell>
        <mxCell id="5SKNjN2g-NxWEHicX-SF-18" value="БД" style="rounded=0;whiteSpace=wrap;html=1;labelPosition=center;verticalLabelPosition=top;align=center;verticalAlign=bottom;" vertex="1" parent="WIyWlLk6GJQsqaUBKTNV-1">
          <mxGeometry x="510" y="120" width="140" height="200" as="geometry" />
        </mxCell>
        <mxCell id="5SKNjN2g-NxWEHicX-SF-17" value="files.openagro.ru" style="rounded=1;whiteSpace=wrap;html=1;" vertex="1" parent="WIyWlLk6GJQsqaUBKTNV-1">
          <mxGeometry x="520" y="180" width="120" height="20" as="geometry" />
        </mxCell>
        <mxCell id="5SKNjN2g-NxWEHicX-SF-20" value="PostgreSQL" style="rounded=1;whiteSpace=wrap;html=1;" vertex="1" parent="WIyWlLk6GJQsqaUBKTNV-1">
          <mxGeometry x="520" y="150" width="120" height="20" as="geometry" />
        </mxCell>
        <mxCell id="5SKNjN2g-NxWEHicX-SF-21" value="visio.openagro.ru" style="rounded=1;whiteSpace=wrap;html=1;" vertex="1" parent="WIyWlLk6GJQsqaUBKTNV-1">
          <mxGeometry x="330" y="180" width="120" height="20" as="geometry" />
        </mxCell>
      </root>
    </mxGraphModel>
  </diagram>
</mxfile>
